# xmcd
#
# Track frame offsets: 
#        150
#        14856
#        33427
#        45779
#        59237
#        76904
#        87040
#        101566
#        118179
#        135065
#        148517
#        161701
#        175097
#        189925
#        201075
#        219220
#
# Disc length: 3003 seconds
#
# Revision: 0
# Processed by: cddbd v1.4PL0 Copyright (c) Steve Scherf et al.
# Submitted via: ExactAudioCopy v0.95a3
#
DISCID=d00bb910
DTITLE=Tony Farinha and Laurie McVay - Just what the Doctor Ordered
DYEAR=2000
DGENRE=R&B
TTITLE0=Those old friends of mine
TTITLE1=Summer of love
TTITLE2=Me and Mr Moto
TTITLE3=Lipstick traces
TTITLE4=Crosstalk
TTITLE5=Hulee, Hulee girls
TTITLE6=That's alright Mama
TTITLE7=Treading the old dirt road
TTITLE8=My first day in heaven
TTITLE9=Muskrat ramble
TTITLE10=32-20 Blues
TTITLE11=White lightning
TTITLE12=Sweet Linda
TTITLE13=Crazy bout you
TTITLE14=It ain't right (live)
TTITLE15=Black creek
EXTD=
EXTT0=
EXTT1=
EXTT2=
EXTT3=
EXTT4=
EXTT5=
EXTT6=
EXTT7=
EXTT8=
EXTT9=
EXTT10=
EXTT11=
EXTT12=
EXTT13=
EXTT14=
EXTT15=
PLAYORDER=
